inDegrees=yes
name=ik_Xsens
DataType=double
version=3
OpenSimVersion=4.4-2022-07-23-0e9fedc
endheader
time	pelvis_tilt	pelvis_list	pelvis_rotation	pelvis_tx	pelvis_ty	pelvis_tz	hip_flexion_r	hip_adduction_r	hip_rotation_r	knee_angle_r	knee_angle_r_beta	ankle_angle_r	subtalar_angle_r	mtp_angle_r	hip_flexion_l	hip_adduction_l	hip_rotation_l	knee_angle_l	knee_angle_l_beta	ankle_angle_l	subtalar_angle_l	mtp_angle_l	lumbar_extension	lumbar_bending	lumbar_rotation	arm_flex_r	arm_add_r	arm_rot_r	elbow_flex_r	pro_sup_r	wrist_flex_r	wrist_dev_r	arm_flex_l	arm_add_l	arm_rot_l	elbow_flex_l	pro_sup_l	wrist_flex_l	wrist_dev_l
24.18333333333333	0	0	0	0	0.93	0	0	0	0	0	0	0	0	0	0	0	0	0	0	0	0	0	0	0	0	245.0592571503818	-36.66566539496525	56.56668692668524	6.718025180269716	-7.188532066811263	0	0	258.4932216530722	-36.15324328557541	61.95906975587204	4.52910549552282	32.69821402793677	0	0
24.2	0	0	0	0	0.93	0	0	0	0	5.833470047852883e-39	0	0	0	0	0	0	0	5.833470047852883e-39	0	0	0	0	0	0	0	244.9662104251148	-36.90066467826659	56.49994135544775	6.656429446920506	-7.031441222333805	0	0	258.5863482992716	-36.37048965404643	62.04012521617679	4.464991692806087	32.63684383672976	0	0
24.21666666666667	0	0	0	0	0.93	0	0	0	0	0	-1.14794370197489e-41	0	0	0	0	0	0	0	-1.14794370197489e-41	0	0	0	0	0	0	244.879846410627	-37.11410151885293	56.47600552413093	6.595117492633809	-6.923434348153325	0	0	258.6867791171593	-36.57659189894934	62.08872592810338	4.411987442898098	32.6777095833634	0	0
24.23333333333333	0	0	0	0	0.93	0	0	0	0	0	-1.14794370197489e-41	0	0	0	0	0	0	0	-1.14794370197489e-41	0	0	0	0	0	0	244.7765084100108	-37.34458547667001	56.47179468751784	6.546239520141478	-6.839932404921043	0	0	258.7845767670053	-36.79481085887571	62.13247580403928	4.368469678973933	32.81921006989306	0	0
24.25	-1.653162740176646e-27	-4.668306339379149e-26	1.496279374231205e-28	1.27295966984929e-22	0.93	1.748624532985203e-21	3.338255465912889e-31	-1.01973651479924e-19	0	2.495609139783043e-15	4.35565943787311e-17	-5.045957905630726e-23	-1.366724637693001e-20	-1.395310075822399e-26	-7.340328386119117e-19	1.825482159307168e-29	9.335906220819948e-20	2.495584298942556e-15	4.355590511306725e-17	-1.986639087466951e-18	-4.013852417981027e-26	1.020038348532813e-26	-1.653162740176646e-27	-3.124095786384172e-25	2.193233533358027e-23	244.6756532347283	-37.59471024155033	56.48570620387589	6.503428938824531	-6.742332384283476	1.43015580701339e-22	8.184548625502902e-21	258.8794809613697	-37.02550425676747	62.17175905451813	4.32738612360555	33.05198392388768	5.481279698972879e-21	1.469484514776029e-19
24.26666666666667	0	0	0	0	0.93	0	0	0	0	0	0	0	0	0	0	0	0	0	0	0	0	0	0	0	0	244.5741802793888	-37.84822594384632	56.45762344763868	6.457446912796107	-6.615848463988231	0	0	258.9665100138572	-37.26041460844355	62.19531016561749	4.280894888347417	33.32353738543485	0	0
24.28333333333333	1.356539960873366e-28	-3.094261310934391e-25	-4.326464265729048e-29	-4.561039330517537e-27	0.93	2.749071493579407e-25	2.155227684594804e-35	1.047765308556062e-23	0	2.525427877708653e-15	4.407702645592431e-17	4.489792152556259e-22	5.806676260915651e-20	2.943672161573065e-22	-1.104109721784081e-24	-1.616420763446103e-35	2.261228789199424e-25	2.528155307924748e-15	4.412472794960876e-17	-4.645557882070677e-19	-1.01460158968537e-20	-6.276714983864852e-22	1.356539960873366e-28	6.97933250218366e-26	-2.345717872420001e-24	244.4709536836558	-38.09484171870552	56.39413347295383	6.416604239002922	-6.535282185258612	-1.038575644345383e-19	6.610729355564961e-24	259.0200478720022	-37.48908500860339	62.18283930585108	4.227739268190939	33.55120107434993	-4.871703947233783e-24	1.245176455577597e-23
24.3	0	0	0	0	0.93	0	0	0	0	5.247050265554357e-40	0	0	0	0	0	0	0	2.529274602347898e-39	0	0	0	0	0	0	0	244.3600972558355	-38.35317894558757	56.32195189608779	6.399843070669966	-6.509581867990947	0	0	259.0387455162	-37.72353535372846	62.12601390153199	4.194799463324052	33.56700133827092	0	0
24.31666666666667	0	0	0	0	0.93	0	0	0	0	0	0	0	0	0	0	0	0	0	0	0	0	0	0	0	0	244.2619491279788	-38.60794751155986	56.21489274735318	6.371530103012197	-6.449740915454313	0	0	259.0750870407317	-37.9653893132657	62.06300467329835	4.18693425328442	33.38714885316364	0	0
24.33333333333333	0	-5.839579105490153e-23	0	-1.525033828089915e-24	0.93	-1.573841933389485e-26	-9.848185918942044e-39	-9.878173817382769e-23	0	3.144406279987044e-07	5.488024261213907e-09	-4.048838849010351e-21	5.900834238359369e-23	-7.358172415462114e-24	-6.336360135952397e-23	-6.663944491049973e-42	-2.857470086119062e-29	3.144406279987044e-07	5.488024261213907e-09	6.958552211364448e-22	-2.217123287520335e-23	8.85946204240536e-23	-7.737966164236156e-26	-8.353387585335686e-24	-4.830579052586093e-25	244.1377533574925	-38.86437069793391	55.99538096372729	6.381527747281504	-6.299406144251217	2.682820078664263e-24	9.705849800536699e-24	259.1203337195146	-38.21166136448823	62.06808782000822	4.206836339961242	33.26916691717126	-2.849975561424059e-23	9.684451310053002e-25
24.35	0	0	0	0	0.93	0	0	0	0	0	0	0	0	0	0	0	0	0	0	0	0	0	0	0	0	243.9944079307847	-39.14677235825544	55.74344783350258	6.42257756105756	-6.149225496792954	0	0	259.165422047669	-38.43846728091926	62.11398164642005	4.21813437888368	33.2633251319572	0	0
